<?xml version="1.0" encoding="utf-8"?>
<!-- Generator: Adobe Illustrator 16.0.0, SVG Export Plug-In . SVG Version: 6.00 Build 0)  -->
<!DOCTYPE svg PUBLIC "-//W3C//DTD SVG 1.1//EN" "http://www.w3.org/Graphics/SVG/1.1/DTD/svg11.dtd">
<svg version="1.1" id="Layer_1" xmlns="http://www.w3.org/2000/svg" xmlns:xlink="http://www.w3.org/1999/xlink" x="0px" y="0px"
	 width="612px" height="792px" viewBox="0 0 612 792" enable-background="new 0 0 612 792" xml:space="preserve">
<rect x="170.062" y="405.81" width="209.304" height="11.017"/>
<path d="M291.237,221.292c0,0-2.754,0-2.754-2.755v-8.262c0-7.604-6.164-13.77-13.77-13.77c-7.604,0-13.767,6.166-13.767,13.77
	h-0.003v8.262c0,0,0,2.755-2.754,2.755h-2.753v5.507h38.556v-5.507H291.237z"/>
<circle cx="274.714" cy="193.752" r="2.754"/>
<path d="M274.714,235.062c3.042,0,5.508-2.465,5.508-5.508h-11.016C269.206,232.597,271.67,235.062,274.714,235.062z"/>
<path d="M310.516,235.238v-41.486h16.521l-52.323-38.556l-52.323,38.556h16.521v41.486l-93.636,71.427h35.802v93.636h71.604v-63.341
	c0-12.17,9.865-22.032,22.032-22.032c12.167,0,22.032,9.861,22.032,22.032v63.341h71.604v-93.636h35.803L310.516,235.238z
	 M233.404,381.023h-33.048v-11.016h33.048V381.023z M233.404,364.5h-33.048v-27.541h33.048V364.5z M274.714,298.403
	c-10.645,0-19.278-8.637-19.278-19.278c0-10.647,8.633-19.278,19.278-19.278c10.649,0,19.278,8.631,19.278,19.278
	C293.992,289.767,285.363,298.403,274.714,298.403z M299.5,237.815h-49.572v-30.294h0.163c1.371-12.393,11.87-22.032,24.624-22.032
	c12.759,0,23.252,9.642,24.624,22.032h0.163V237.815z M349.072,381.023h-33.049v-11.016h33.049V381.023z M349.072,364.5h-33.049
	v-27.541h33.049V364.5z"/>
<path d="M274.714,281.879h-8.262c-1.521,0-2.754-1.23-2.754-2.754c0-1.523,1.234-2.754,2.754-2.754h5.508v-11.016
	c0-1.523,1.233-2.755,2.754-2.755s2.754,1.231,2.754,2.755v13.77C277.468,280.649,276.234,281.879,274.714,281.879z"/>
<g>
	<path d="M583.48,490.168c-14.479-40.783-122.399-122.43-122.399-122.43c15.275-30.582,23.286-64.248,23.286-98.379
		c0-121.819-99.095-220.957-220.901-220.993l0,0h-0.006C141.647,48.408,42.559,147.534,42.559,269.347
		c0,121.776,99.12,220.84,220.957,220.84c34.137,0,67.792-7.999,98.336-23.256c0,0,81.916,109.848,122.467,122.474
		c11.371,3.543,24.59,2.02,32.437-0.013c30.526-7.913,59.187-42.308,66.738-66.812C585.874,514.845,587.41,501.228,583.48,490.168z
		 M501.424,570.022c-47.602,0-135.54-131.477-135.54-131.477c-29.878,18.115-64.859,28.716-102.375,28.716
		c-109.376,0-198.025-88.612-198.025-197.915c0-109.401,88.624-198.013,197.97-198.049
		c109.419,0.037,197.976,88.648,197.976,198.067c0,37.51-10.631,72.528-28.746,102.406c0,0,131.801,87.602,131.795,135.191
		C564.479,535.622,530.084,570.022,501.424,570.022z"/>
	<path d="M236.109,118.195c-6.267,0.894-10.624,6.702-9.73,12.975c0.899,6.267,6.72,10.618,12.974,9.73
		c4.37-0.624,107.155-14.094,142.333,86.409c1.659,4.725,6.09,7.68,10.827,7.68c1.254,0,2.527-0.208,3.788-0.648
		c5.979-2.093,9.125-8.635,7.031-14.608C361.998,101.646,237.364,118.011,236.109,118.195z"/>
</g>
</svg>
